<?xml version="1.0" encoding="utf-8"?>
<!-- Generator: Adobe Illustrator 22.1.0, SVG Export Plug-In . SVG Version: 6.00 Build 0)  -->
<svg version="1.1" id="Layer_1" xmlns="http://www.w3.org/2000/svg" xmlns:xlink="http://www.w3.org/1999/xlink" x="0px" y="0px"
	 viewBox="0 0 960 2000" style="enable-background:new 0 0 960 2000;" xml:space="preserve">
<style type="text/css">
	.st0{fill:#455A64;}
	.st1{fill:#EC2024;}
	.st2{fill:#FFFFFF;}
</style>
<rect x="-531.1" y="479.6" transform="matrix(-4.511521e-11 1 -1 -4.511521e-11 1442.3568 481.5477)" class="st0" width="2023" height="964.7"/>
<g id="XMLID_3_">
	<g>
		<path class="st1" d="M255.3,795.5c8,0,9,10,11.1,17c7,21-3,60,24.6,65.5c3-0.4,5.8-1.4,8.5-2.7c2.7-1.3,5.2-3.1,7.6-5.1
			c15.5-14.7,35.6-43.7,46.7-35.7c28.1,20-9,73-15.1,110c-1,7-1,19,4,19c13.4-2.5,18.4-18.2,28.4-29.7c2-2.3,4.2-4.4,6.7-6.3
			c13.1-10,22.1,3,27.1,14c23.1-13,38.2-48,70.3-34c3,2,8,2,11.1-1c1,0,3,1,4,2c8.7,26,6.3,53.8,8.4,80.4c0.3,3.3,0.6,6.6,1.1,9.5
			c0.5,7.1,5.5,19.1,9.6,17.1c29.1-20,30.1-74,62.3-75c17.1,0,5,37,17.1,57c2,2,4,1,6,0c2.2-1.3,4-3.1,5.6-5.3
			c8.2-10.6,11.1-28.4,24.5-26.7c8.3,0.8,9.8,10.5,12.1,20c0.8,3.2,1.7,6.3,2.9,9c1,5,7,5,10,3c24.1-20,24.1-83,47.2-70
			c32.2,17,2,70,9,110c1,6,4,15,9,14c2-1,2-9,5-11c10-5,3,13,12.1,15c2,0.5,3.5-1,4.8-3.1c1.3-2.1,2.3-4.9,3.3-6.9
			c10-24,1-54,26.1-71c4-4,2-12,8-15c5,15,13.1,30,29.2,35.6c3.1,1.3,5.7,2.6,7.9,4.4c15.6,12.3,11,43.9,17.1,64c2,7,6,15,15,13.1
			c2.9-0.8,5.5-2,7.9-3.5c14.6-9.3,22.5-31.1,38.4-41.6c3-2,6-3,7-2c9.5,13,12.3,27.2,13.9,41.8c0.3,3.3,0.5,6.5,0.7,9.9
			c1.4,32.3,4.4,69.3,27.5,90.3c6,6,13.1-17,22.1-26.2h0.5v795.2H-1.5V713.1h2.7c4.9-3.6,10.9-12.6,16.9-7.6c13.1,12,9,44,29.1,40
			c14.1-3,10-25,19.8-36.6c1.5-2.1,3.3-3.9,5.3-4.4c12.1-3,14.1,23,25.1,9c10,9,7,23,11.1,35c2,5,7,11,14,9.9
			c2.6-0.3,5.1-1.1,7.6-2.1c2.5-1,5-2.2,7.6-3.1c12-7.6,15,10.4,17,18.4c6,28,3,56,20.1,80c3,4,10-1,13.1-4
			C206.1,823.5,224.1,796.5,255.3,795.5z"/>
	</g>
	<g>
	</g>
</g>
<g id="XMLID_4_">
	<g>
		<path class="st2" d="M844.1,1109.5c2.9-0.8,5.5-2,7.9-3.5c14.6-9.3,22.5-31.1,38.4-41.6c3-2,6-3,7-2c9.5,13,12.3,27.2,13.9,41.8
			c0.3,3.3,0.5,6.5,0.7,9.9c1.4,32.3,4.4,69.3,27.5,90.3c6,6,13.1-17,22.1-26.2h0.5v795.2H-1.5V746.1h2.7
			c4.9-3.6,10.9-12.6,16.9-7.6c13.1,12,9,44,29.1,40c14.1-3,10-25,19.8-36.6c1.5-2.1,3.3-3.9,5.3-4.4c12.1-3,14.1,23,25.1,9
			c10,9,7,23,11.1,35c2,5,7,11,14,9.9c2.6-0.3,5.1-1.1,7.6-2.1s5-2.2,7.6-3.1c12-7.6,15,10.4,17,18.4c6,28,3,56,20.1,80
			c3,4,10-1,13.1-4c18.1-24,36.2-51,67.3-52c8,0,9,10,11.1,17c7,21-3,60,24.6,65.5c3-0.4,5.8-1.4,8.5-2.7c2.7-1.3,5.2-3.1,7.6-5.1
			c15.5-14.7,35.6-43.7,46.7-35.7c28.1,20-9,73-15.1,110c-1,7-1,19,4,19c13.4-2.5,18.4-18.2,28.4-29.7c2-2.3,4.2-4.5,6.7-6.3
			c13.1-10,22.1,3,27.1,14c23.1-13,38.2-48,70.3-34c3,2,8,2,11.1-1c1,0,3,1,4,2c8.7,26,6.3,53.8,8.4,80.4c0.3,3.3,0.6,6.6,1.1,9.6
			c0.5,7.1,5.5,19.1,9.6,17.1c29.1-20,30.1-74,62.3-75c17.1,0,5,37,17.1,57c2,2,4,1,6,0c2.2-1.3,4-3.1,5.6-5.3
			c8.2-10.6,11.1-28.4,24.5-26.7c8.3,0.8,9.8,10.5,12.1,20c0.8,3.1,1.7,6.3,2.9,9c1,5,7,5,10,3c24.1-20,24.1-83,47.2-70
			c32.2,17,2,70,9,110c1,6,4,15,9,14c2-1,2-9,5-11c10-5,3,13,12.1,15c2,0.5,3.5-1,4.8-3.1c1.3-2.1,2.3-4.9,3.3-6.9
			c10-24,1-54,26.1-71c4-4,2-12,8-15c5,15,13.1,30,29.2,35.6c3.1,1.3,5.7,2.6,7.9,4.4c15.6,12.3,11,43.9,17.1,64
			C831.2,1103.5,835.2,1111.5,844.1,1109.5z"/>
	</g>
	<g>
	</g>
</g>
<rect x="-34.9" y="1929.7" transform="matrix(-1 -4.467860e-11 4.467860e-11 -1 957.9218 4104.814)" class="st2" width="1027.7" height="245.5"/>
</svg>
