<svg xmlns="http://www.w3.org/2000/svg" viewBox="0 0 612 612"><defs><style>.cls-1{fill:#455a64;}.cls-2{opacity:0.3;}.cls-3{fill:#f2f2f2;}.cls-4{fill:#ec2024;stroke:#fff;stroke-miterlimit:10;stroke-width:0.2px;}</style></defs><title>vampir-bluegray-icon1-svg</title><g id="Layer_2" data-name="Layer 2"><rect class="cls-1" x="-115" y="-135" width="928" height="968"/></g><g id="Layer_1" data-name="Layer 1"><polyline class="cls-2" points="235 117.5 337.5 219.5 379.39 114.27 387 116 391.33 120 613.26 343.55 613.39 614.25 535.61 616.33 497.42 615.64 481.44 616.33 301 434.75"/><path class="cls-3" d="M211.31,132.76a14.42,14.42,0,0,1,13.84-18.49h1.07a14.43,14.43,0,0,1,13.86,10.45c31.29,109.23,53.4,186.71,60.76,219h.44c5-23.33,27.84-98.4,64.3-219.21a14.43,14.43,0,0,1,13.81-10.26h0A14.41,14.41,0,0,1,393.15,133L320,367.52c-.69,1.28-18.84,67.48-18.81,67.56h0c-.11,0-19.8-65.45-20.79-67.71"/><path class="cls-4" d="M391.7,122c19.43,19,28.89,36.23,23.65,52.42,0,.1-4.16,10.23-11.92,10.49-10.34.34-14.08-3.86-14.11-3.81C388.57,180.16,377.74,176.25,391.7,122Z"/></g></svg>