<?xml version="1.0" encoding="utf-8"?>
<!-- Generator: Adobe Illustrator 22.1.0, SVG Export Plug-In . SVG Version: 6.00 Build 0)  -->
<svg version="1.1" xmlns="http://www.w3.org/2000/svg" xmlns:xlink="http://www.w3.org/1999/xlink" x="0px" y="0px"
	 viewBox="0 0 2000 960" style="enable-background:new 0 0 2000 960;" xml:space="preserve">
<style type="text/css">
	.st0{fill:#455A64;}
	.st1{fill:#EC2024;}
	.st2{fill:#FFFFFF;}
</style>
<g id="Layer_1">
	<rect class="st0" width="2023" height="960"/>
</g>
<g id="Layer_2">
	<g id="XMLID_3_">
		<g>
			<path class="st1" d="M1990,0.5v959.1H762.6v-2.7C759,952,750,946,755,940c12-13,44-9,40-29c-3-14-25-10-36.6-19.8
				c-2.1-1.5-3.9-3.2-4.4-5.2c-3-12,23-14,9-25c9-10,23-7,35-11c5-2,11-7,9.9-13.9c-0.3-2.6-1.1-5.1-2.1-7.6s-2.2-5-3.1-7.6
				C795,809,813,806,821,804c28-6,56-3,80-20c4-3-1-10-4-13c-24-18-51-36-52-67c0-8,10-9,17-11c21-7,60,3,65.5-24.5
				c-0.4-3-1.4-5.8-2.7-8.4c-1.3-2.7-3.1-5.2-5.1-7.6C905,637,876,617,884,606c20-28,73,9,110,15c7,1,19,1,19-4
				c-2.5-13.3-18.2-18.3-29.7-28.3c-2.3-2-4.5-4.2-6.3-6.7c-10-13,3-22,14-27c-13-23-48-38-34-70c2-3,2-8-1-11c0-1,1-3,2-4
				c26-8.7,53.8-6.2,80.4-8.4c3.3-0.3,6.6-0.6,9.6-1.1c7.1-0.5,19.1-5.5,17.1-9.5c-20-29-74-30-75-62c0-17,37-5,57-17c2-2,1-4,0-6
				c-1.3-2.2-3.1-4-5.3-5.6c-10.6-8.1-28.4-11-26.7-24.4c0.8-8.2,10.5-9.8,20-12.1c3.2-0.8,6.3-1.7,9-2.9c5-1,5-7,3-10
				c-20-24-83-24-70-47c17-32,70-2,110-9c6-1,15-4,14-9c-1-2-9-2-11-5c-5-10,13-3,15-12c0.5-2-1-3.5-3.1-4.8
				c-2.1-1.2-4.9-2.2-6.9-3.2c-24-10-54-1-71-26c-4-4-12-2-15-8c15-5,30-13,35.6-29.1c1.3-3.1,2.6-5.7,4.4-7.9
				c12.3-15.5,43.9-10.9,64-17c7-2,15-6,13.1-14.9c-0.8-2.9-2-5.5-3.5-7.9c-9.3-14.6-31.1-22.4-41.6-38.2c-2-3-3-6-2-7
				c13-9.5,27.2-12.3,41.8-13.9c3.3-0.3,6.5-0.5,9.9-0.7C1163,49,1200,46,1221,23c6-6-17-13-26.2-22V0.5H1990z"/>
		</g>
		<g>
		</g>
	</g>
</g>
<g id="Layer_3">
	<g id="XMLID_4_">
		<g>
			<path class="st2" d="M2023,0.5v959.1H795.6v-2.7C792,952,783,946,788,940c12-13,44-9,40-29c-3-14-25-10-36.6-19.8
				c-2.1-1.5-3.9-3.2-4.4-5.2c-3-12,23-14,9-25c9-10,23-7,35-11c5-2,11-7,9.9-13.9c-0.3-2.6-1.1-5.1-2.1-7.6s-2.2-5-3.1-7.6
				C828,809,846,806,854,804c28-6,56-3,80-20c4-3-1-10-4-13c-24-18-51-36-52-67c0-8,10-9,17-11c21-7,60,3,65.5-24.5
				c-0.4-3-1.4-5.8-2.7-8.4c-1.3-2.7-3.1-5.2-5.1-7.6C938,637,909,617,917,606c20-28,73,9,110,15c7,1,19,1,19-4
				c-2.5-13.3-18.2-18.3-29.7-28.3c-2.3-2-4.5-4.2-6.3-6.7c-10-13,3-22,14-27c-13-23-48-38-34-70c2-3,2-8-1-11c0-1,1-3,2-4
				c26-8.7,53.8-6.2,80.4-8.4c3.3-0.3,6.6-0.6,9.6-1.1c7.1-0.5,19.1-5.5,17.1-9.5c-20-29-74-30-75-62c0-17,37-5,57-17c2-2,1-4,0-6
				c-1.3-2.2-3.1-4-5.3-5.6c-10.6-8.1-28.4-11-26.7-24.4c0.8-8.2,10.5-9.8,20-12.1c3.2-0.8,6.3-1.7,9-2.9c5-1,5-7,3-10
				c-20-24-83-24-70-47c17-32,70-2,110-9c6-1,15-4,14-9c-1-2-9-2-11-5c-5-10,13-3,15-12c0.5-2-1-3.5-3.1-4.8
				c-2.1-1.2-4.9-2.2-6.9-3.2c-24-10-54-1-71-26c-4-4-12-2-15-8c15-5,30-13,35.6-29.1c1.3-3.1,2.6-5.7,4.4-7.9
				c12.3-15.5,43.9-10.9,64-17c7-2,15-6,13.1-14.9c-0.8-2.9-2-5.5-3.5-7.9c-9.3-14.6-31.1-22.4-41.6-38.2c-2-3-3-6-2-7
				c13-9.5,27.2-12.2,41.8-13.9c3.3-0.3,6.5-0.5,9.9-0.7C1196,49,1233,46,1254,23c6-6-17-13-26.2-22V0.5H2023z"/>
		</g>
		<g>
		</g>
	</g>
</g>
</svg>
